<svg width="25" height="24" viewBox="0 0 25 24" fill="none" xmlns="http://www.w3.org/2000/svg">
<path d="M6.20869 19H9.31304V14C9.31304 13.7167 9.41221 13.4792 9.61054 13.2875C9.80888 13.0958 10.0546 13 10.3478 13H14.487C14.7801 13 15.0259 13.0958 15.2242 13.2875C15.4226 13.4792 15.5217 13.7167 15.5217 14V19H18.6261V10L12.4174 5.5L6.20869 10V19ZM4.13913 19V10C4.13913 9.68333 4.21243 9.38333 4.35902 9.1C4.50562 8.81667 4.70826 8.58333 4.96696 8.4L11.1757 3.9C11.5378 3.63333 11.9517 3.5 12.4174 3.5C12.883 3.5 13.297 3.63333 13.6591 3.9L19.8678 8.4C20.1265 8.58333 20.3292 8.81667 20.4758 9.1C20.6224 9.38333 20.6957 9.68333 20.6957 10V19C20.6957 19.55 20.493 20.0208 20.0877 20.4125C19.6824 20.8042 19.1952 21 18.6261 21H14.487C14.1938 21 13.948 20.9042 13.7497 20.7125C13.5513 20.5208 13.4522 20.2833 13.4522 20V15H11.3826V20C11.3826 20.2833 11.2834 20.5208 11.0851 20.7125C10.8868 20.9042 10.641 21 10.3478 21H6.20869C5.63956 21 5.15235 20.8042 4.74706 20.4125C4.34177 20.0208 4.13913 19.55 4.13913 19Z" fill="#5D5DFF"/>
</svg>
