<svg width="24" height="24" viewBox="0 0 24 24" fill="none" xmlns="http://www.w3.org/2000/svg">
<path d="M9.39531 15.8237C7.59865 15.8237 6.07809 15.2015 4.83362 13.957C3.58915 12.7125 2.96692 11.192 2.96692 9.39534C2.96692 7.59868 3.58915 6.07812 4.83362 4.83365C6.07809 3.58918 7.59865 2.96695 9.39531 2.96695C11.192 2.96695 12.7125 3.58918 13.957 4.83365C15.2015 6.07812 15.8237 7.59868 15.8237 9.39534C15.8237 10.1206 15.7083 10.8046 15.4775 11.4475C15.2468 12.0903 14.9336 12.659 14.538 13.1535L20.0763 18.6918C20.2576 18.8731 20.3483 19.1038 20.3483 19.3841C20.3483 19.6643 20.2576 19.895 20.0763 20.0763C19.895 20.2577 19.6642 20.3483 19.384 20.3483C19.1038 20.3483 18.8731 20.2577 18.6917 20.0763L13.1534 14.538C12.6589 14.9336 12.0903 15.2468 11.4474 15.4776C10.8046 15.7083 10.1206 15.8237 9.39531 15.8237ZM9.39531 13.8458C10.6315 13.8458 11.6823 13.4131 12.5477 12.5477C13.413 11.6824 13.8457 10.6316 13.8457 9.39534C13.8457 8.15911 13.413 7.10831 12.5477 6.24295C11.6823 5.37759 10.6315 4.94491 9.39531 4.94491C8.15908 4.94491 7.10828 5.37759 6.24292 6.24295C5.37756 7.10831 4.94488 8.15911 4.94488 9.39534C4.94488 10.6316 5.37756 11.6824 6.24292 12.5477C7.10828 13.4131 8.15908 13.8458 9.39531 13.8458Z" fill="black" fill-opacity="0.3"/>
</svg>
