<svg width="24" height="24" viewBox="0 0 24 24" fill="none" xmlns="http://www.w3.org/2000/svg">
<path d="M8.85002 16.825L12 14.925L15.15 16.85L14.325 13.25L17.1 10.85L13.45 10.525L12 7.125L10.55 10.5L6.90001 10.825L9.67501 13.25L8.85002 16.825ZM12 17.275L7.85002 19.775C7.66668 19.8917 7.47502 19.9417 7.27501 19.925C7.07501 19.9083 6.90001 19.8417 6.75002 19.725C6.60001 19.6083 6.48335 19.4625 6.40002 19.2875C6.31668 19.1125 6.30002 18.9167 6.35002 18.7L7.45002 13.975L3.77502 10.8C3.60835 10.65 3.50418 10.4792 3.46252 10.2875C3.42085 10.0958 3.43335 9.90833 3.50002 9.725C3.56668 9.54166 3.66668 9.39166 3.80002 9.275C3.93335 9.15833 4.11668 9.08333 4.35002 9.05L9.20002 8.625L11.075 4.175C11.1583 3.975 11.2875 3.825 11.4625 3.725C11.6375 3.625 11.8167 3.575 12 3.575C12.1833 3.575 12.3625 3.625 12.5375 3.725C12.7125 3.825 12.8417 3.975 12.925 4.175L14.8 8.625L19.65 9.05C19.8833 9.08333 20.0667 9.15833 20.2 9.275C20.3333 9.39166 20.4333 9.54166 20.5 9.725C20.5667 9.90833 20.5792 10.0958 20.5375 10.2875C20.4958 10.4792 20.3917 10.65 20.225 10.8L16.55 13.975L17.65 18.7C17.7 18.9167 17.6833 19.1125 17.6 19.2875C17.5167 19.4625 17.4 19.6083 17.25 19.725C17.1 19.8417 16.925 19.9083 16.725 19.925C16.525 19.9417 16.3333 19.8917 16.15 19.775L12 17.275Z" fill="#909094"/>
</svg>
